<svg width="1418" height="1667" viewBox="0 0 1418 1667" fill="none" xmlns="http://www.w3.org/2000/svg">
<path d="M1024.89 0H393.933C78.4529 0 0 84.2572 0 420.452V1359.79C0 1581.7 121.852 1634.26 269.577 1475.75L270.412 1474.92C338.85 1402.34 443.175 1408.18 502.432 1487.43L586.727 1600.05C654.33 1689.32 763.663 1689.32 831.266 1600.05L915.561 1487.43C975.653 1407.35 1079.98 1401.51 1148.42 1474.92C1296.98 1633.42 1417.99 1580.87 1417.99 1358.96V420.452C1418.83 84.2572 1340.38 0 1024.89 0ZM959.796 813.374H459.033C424.814 813.374 396.437 785.01 396.437 750.807C396.437 716.604 424.814 688.24 459.033 688.24H959.796C994.014 688.24 1022.39 716.604 1022.39 750.807C1022.39 785.01 994.014 813.374 959.796 813.374ZM1043.26 479.682H375.572C341.353 479.682 312.977 451.318 312.977 417.115C312.977 382.912 341.353 354.548 375.572 354.548H1043.26C1077.47 354.548 1105.85 382.912 1105.85 417.115C1105.85 451.318 1077.47 479.682 1043.26 479.682Z" fill="#BABABA"/>
</svg>
